# Blender v2.78 (sub 0) OBJ File: 'Room.blend'
# www.blender.org
mtllib Room.mtl
o Cube
v -0.982873 -1.007187 -1.546377
v -0.982873 -1.007187 1.540447
v 0.911646 -1.005396 1.004233
v 0.911646 -1.005396 -0.995767
v -0.982872 0.999637 -1.546376
v -0.982873 0.999637 1.540448
v 0.911645 0.994604 1.004233
v 0.911646 0.994604 -0.995766
vn -0.0009 1.0000 0.0000
vn -0.0027 -1.0000 0.0000
vn -0.2723 0.0000 -0.9622
vn -1.0000 -0.0000 -0.0000
vn -0.2791 -0.0000 0.9603
usemtl Material
s off
f 1//1 2//1 3//1 4//1
f 5//2 8//2 7//2 6//2
f 2//3 6//3 7//3 3//3
f 3//4 7//4 8//4 4//4
f 5//5 1//5 4//5 8//5
