# MagicaVoxel @ Ephtracy

# material
mtllib PictureFrameBrown.mtl
usemtl palette

# normals
vn -1 0 0
vn 1 0 0
vn 0 0 1
vn 0 0 -1
vn 0 -1 0
vn 0 1 0

# texcoords
vt 0.255859 0.5
vt 0.263672 0.5
vt 0.279297 0.5
vt 0.958984 0.5
vt 0.970703 0.5
vt 0.982422 0.5
vt 0.994141 0.5

# verts
v -34 0 34
v -34 0 -34
v -34 1 32
v -34 1 -32
v -34 2 34
v -34 2 32
v -34 2 -32
v -34 2 -34
v -34 3 34
v -34 3 -34
v -33 1 32
v -33 1 -32
v -33 2 32
v -33 2 -32
v -33 3 33
v -33 3 -33
v -33 4 33
v -33 4 -33
v -33 96 33
v -33 96 -33
v -33 100 33
v -33 100 -33
v 30 1 30
v 30 1 -30
v 30 2 30
v 30 2 -30
v 31 2 31
v 31 2 -31
v 31 3 31
v 31 3 -31
v 32 1 34
v 32 1 33
v 32 1 -33
v 32 1 -34
v 32 2 34
v 32 2 33
v 32 2 -33
v 32 2 -34
v 32 3 32
v 32 3 -32
v 32 4 32
v 32 4 -32
v 32 96 32
v 32 96 -32
v 32 97 33
v 32 97 32
v 32 97 -32
v 32 97 -33
v 32 100 33
v 32 100 -33
v -32 1 34
v -32 1 33
v -32 1 -33
v -32 1 -34
v -32 2 34
v -32 2 33
v -32 2 -33
v -32 2 -34
v -32 3 32
v -32 3 -32
v -32 4 32
v -32 4 -32
v -32 96 32
v -32 96 -32
v -32 97 33
v -32 97 32
v -32 97 -32
v -32 97 -33
v -32 100 33
v -32 100 -33
v -31 2 31
v -31 2 -31
v -31 3 31
v -31 3 -31
v -30 1 30
v -30 1 -30
v -30 2 30
v -30 2 -30
v 33 1 32
v 33 1 -32
v 33 2 32
v 33 2 -32
v 33 3 33
v 33 3 -33
v 33 4 33
v 33 4 -33
v 33 96 33
v 33 96 -33
v 33 100 33
v 33 100 -33
v 34 0 34
v 34 0 -34
v 34 1 32
v 34 1 -32
v 34 2 34
v 34 2 32
v 34 2 -32
v 34 2 -34
v 34 3 34
v 34 3 -34
v -34 0 34
v -34 2 34
v -34 3 34
v -32 1 34
v -32 2 34
v 32 1 34
v 32 2 34
v 34 0 34
v 34 2 34
v 34 3 34
v -33 3 33
v -33 4 33
v -33 96 33
v -33 100 33
v -32 1 33
v -32 2 33
v -32 97 33
v -32 100 33
v 32 1 33
v 32 2 33
v 32 97 33
v 32 100 33
v 33 3 33
v 33 4 33
v 33 96 33
v 33 100 33
v -30 1 -30
v -30 2 -30
v 30 1 -30
v 30 2 -30
v -31 2 -31
v -31 3 -31
v 31 2 -31
v 31 3 -31
v -34 1 -32
v -34 2 -32
v -33 1 -32
v -33 2 -32
v -32 3 -32
v -32 4 -32
v -32 96 -32
v -32 97 -32
v 32 3 -32
v 32 4 -32
v 32 96 -32
v 32 97 -32
v 33 1 -32
v 33 2 -32
v 34 1 -32
v 34 2 -32
v -34 1 32
v -34 2 32
v -33 1 32
v -33 2 32
v -32 3 32
v -32 4 32
v -32 96 32
v -32 97 32
v 32 3 32
v 32 4 32
v 32 96 32
v 32 97 32
v 33 1 32
v 33 2 32
v 34 1 32
v 34 2 32
v -31 2 31
v -31 3 31
v 31 2 31
v 31 3 31
v -30 1 30
v -30 2 30
v 30 1 30
v 30 2 30
v -33 3 -33
v -33 4 -33
v -33 96 -33
v -33 100 -33
v -32 1 -33
v -32 2 -33
v -32 97 -33
v -32 100 -33
v 32 1 -33
v 32 2 -33
v 32 97 -33
v 32 100 -33
v 33 3 -33
v 33 4 -33
v 33 96 -33
v 33 100 -33
v -34 0 -34
v -34 2 -34
v -34 3 -34
v -32 1 -34
v -32 2 -34
v 32 1 -34
v 32 2 -34
v 34 0 -34
v 34 2 -34
v 34 3 -34
v -34 0 34
v 34 0 34
v -33 0 33
v 33 0 33
v -30 0 30
v 30 0 30
v -30 0 -30
v 30 0 -30
v -33 0 -32
v 33 0 -32
v -34 0 -34
v 34 0 -34
v -32 2 34
v 32 2 34
v -32 2 33
v 32 2 33
v -34 2 32
v -33 2 32
v 33 2 32
v 34 2 32
v -34 2 -32
v -33 2 -32
v 33 2 -32
v 34 2 -32
v -32 2 -33
v 32 2 -33
v -32 2 -34
v 32 2 -34
v -33 96 33
v 33 96 33
v -32 96 32
v 32 96 32
v -32 96 -32
v 32 96 -32
v -33 96 -33
v 33 96 -33
v -32 1 34
v 32 1 34
v -32 1 33
v 32 1 33
v -34 1 32
v -33 1 32
v 33 1 32
v 34 1 32
v -30 1 30
v 30 1 30
v -30 1 -30
v 30 1 -30
v -34 1 -32
v -33 1 -32
v 33 1 -32
v 34 1 -32
v -32 1 -33
v 32 1 -33
v -32 1 -34
v 32 1 -34
v -31 2 31
v 31 2 31
v -30 2 30
v 30 2 30
v -30 2 -30
v 30 2 -30
v -31 2 -31
v 31 2 -31
v -34 3 34
v 34 3 34
v -33 3 33
v 33 3 33
v -32 3 32
v 32 3 32
v -31 3 31
v 31 3 31
v -31 3 -31
v 31 3 -31
v -32 3 -32
v 32 3 -32
v -33 3 -33
v 33 3 -33
v -34 3 -34
v 34 3 -34
v -33 4 33
v 33 4 33
v -32 4 32
v 32 4 32
v -32 4 -32
v 32 4 -32
v -33 4 -33
v 33 4 -33
v -32 97 33
v 32 97 33
v -32 97 32
v 32 97 32
v -32 97 -32
v 32 97 -32
v -32 97 -33
v 32 97 -33
v -33 100 33
v -32 100 33
v 32 100 33
v 33 100 33
v -33 100 -33
v -32 100 -33
v 32 100 -33
v 33 100 -33

# faces
f 3/3/1 2/3/1 1/3/1
f 4/3/1 2/3/1 3/3/1
f 5/3/1 3/3/1 1/3/1
f 6/3/1 3/3/1 5/3/1
f 7/3/1 2/3/1 4/3/1
f 8/3/1 2/3/1 7/3/1
f 9/2/1 6/2/1 5/2/1
f 9/2/1 7/2/1 6/2/1
f 9/2/1 8/2/1 7/2/1
f 10/2/1 8/2/1 9/2/1
f 13/6/1 12/6/1 11/6/1
f 14/6/1 12/6/1 13/6/1
f 17/1/1 16/1/1 15/1/1
f 18/1/1 16/1/1 17/1/1
f 21/5/1 20/5/1 19/5/1
f 22/5/1 20/5/1 21/5/1
f 25/3/1 24/3/1 23/3/1
f 26/3/1 24/3/1 25/3/1
f 29/2/1 28/2/1 27/2/1
f 30/2/1 28/2/1 29/2/1
f 35/3/1 32/3/1 31/3/1
f 36/3/1 32/3/1 35/3/1
f 37/3/1 34/3/1 33/3/1
f 38/3/1 34/3/1 37/3/1
f 41/1/1 40/1/1 39/1/1
f 42/1/1 40/1/1 41/1/1
f 46/5/1 44/5/1 43/5/1
f 47/5/1 44/5/1 46/5/1
f 49/5/1 47/5/1 46/5/1
f 49/5/1 48/5/1 47/5/1
f 49/5/1 46/5/1 45/5/1
f 50/5/1 48/5/1 49/5/1
f 51/3/2 52/3/2 55/3/2
f 55/3/2 52/3/2 56/3/2
f 53/3/2 54/3/2 57/3/2
f 57/3/2 54/3/2 58/3/2
f 59/1/2 60/1/2 61/1/2
f 61/1/2 60/1/2 62/1/2
f 63/5/2 64/5/2 66/5/2
f 66/5/2 64/5/2 67/5/2
f 66/5/2 67/5/2 69/5/2
f 67/5/2 68/5/2 69/5/2
f 65/5/2 66/5/2 69/5/2
f 69/5/2 68/5/2 70/5/2
f 71/2/2 72/2/2 73/2/2
f 73/2/2 72/2/2 74/2/2
f 75/3/2 76/3/2 77/3/2
f 77/3/2 76/3/2 78/3/2
f 79/6/2 80/6/2 81/6/2
f 81/6/2 80/6/2 82/6/2
f 83/1/2 84/1/2 85/1/2
f 85/1/2 84/1/2 86/1/2
f 87/5/2 88/5/2 89/5/2
f 89/5/2 88/5/2 90/5/2
f 91/3/2 92/3/2 93/3/2
f 93/3/2 92/3/2 94/3/2
f 91/3/2 93/3/2 95/3/2
f 95/3/2 93/3/2 96/3/2
f 94/3/2 92/3/2 97/3/2
f 97/3/2 92/3/2 98/3/2
f 95/2/2 96/2/2 99/2/2
f 96/2/2 97/2/2 99/2/2
f 97/2/2 98/2/2 99/2/2
f 99/2/2 98/2/2 100/2/2
f 104/3/3 102/3/3 101/3/3
f 105/2/3 103/2/3 102/2/3
f 105/3/3 102/3/3 104/3/3
f 106/3/3 104/3/3 101/3/3
f 107/2/3 103/2/3 105/2/3
f 108/3/3 106/3/3 101/3/3
f 108/3/3 107/3/3 106/3/3
f 109/2/3 103/2/3 107/2/3
f 109/3/3 107/3/3 108/3/3
f 110/2/3 103/2/3 109/2/3
f 117/5/3 114/5/3 113/5/3
f 118/5/3 114/5/3 117/5/3
f 119/6/3 116/6/3 115/6/3
f 120/6/3 116/6/3 119/6/3
f 121/5/3 117/5/3 113/5/3
f 123/1/3 112/1/3 111/1/3
f 124/1/3 112/1/3 123/1/3
f 125/5/3 122/5/3 121/5/3
f 125/5/3 121/5/3 113/5/3
f 126/5/3 122/5/3 125/5/3
f 129/3/3 128/3/3 127/3/3
f 130/3/3 128/3/3 129/3/3
f 133/2/3 132/2/3 131/2/3
f 134/2/3 132/2/3 133/2/3
f 137/3/3 136/3/3 135/3/3
f 138/3/3 136/3/3 137/3/3
f 143/1/3 140/1/3 139/1/3
f 144/1/3 140/1/3 143/1/3
f 145/5/3 142/5/3 141/5/3
f 146/5/3 142/5/3 145/5/3
f 149/3/3 148/3/3 147/3/3
f 150/3/3 148/3/3 149/3/3
f 151/3/4 152/3/4 153/3/4
f 153/3/4 152/3/4 154/3/4
f 155/1/4 156/1/4 159/1/4
f 159/1/4 156/1/4 160/1/4
f 157/5/4 158/5/4 161/5/4
f 161/5/4 158/5/4 162/5/4
f 163/3/4 164/3/4 165/3/4
f 165/3/4 164/3/4 166/3/4
f 167/2/4 168/2/4 169/2/4
f 169/2/4 168/2/4 170/2/4
f 171/3/4 172/3/4 173/3/4
f 173/3/4 172/3/4 174/3/4
f 177/5/4 178/5/4 181/5/4
f 181/5/4 178/5/4 182/5/4
f 179/6/4 180/6/4 183/6/4
f 183/6/4 180/6/4 184/6/4
f 177/5/4 181/5/4 185/5/4
f 175/1/4 176/1/4 187/1/4
f 187/1/4 176/1/4 188/1/4
f 185/5/4 186/5/4 189/5/4
f 177/5/4 185/5/4 189/5/4
f 189/5/4 186/5/4 190/5/4
f 191/3/4 192/3/4 194/3/4
f 192/2/4 193/2/4 195/2/4
f 194/3/4 192/3/4 195/3/4
f 191/3/4 194/3/4 196/3/4
f 195/2/4 193/2/4 197/2/4
f 191/3/4 196/3/4 198/3/4
f 196/3/4 197/3/4 198/3/4
f 197/2/4 193/2/4 199/2/4
f 198/3/4 197/3/4 199/3/4
f 199/2/4 193/2/4 200/2/4
f 203/3/5 202/3/5 201/3/5
f 204/3/5 202/3/5 203/3/5
f 205/5/5 204/5/5 203/5/5
f 206/5/5 204/5/5 205/5/5
f 207/5/5 205/5/5 203/5/5
f 207/4/5 206/4/5 205/4/5
f 208/5/5 204/5/5 206/5/5
f 208/4/5 206/4/5 207/4/5
f 209/3/5 203/3/5 201/3/5
f 209/5/5 207/5/5 203/5/5
f 209/5/5 208/5/5 207/5/5
f 210/5/5 204/5/5 208/5/5
f 210/5/5 208/5/5 209/5/5
f 210/3/5 202/3/5 204/3/5
f 211/3/5 209/3/5 201/3/5
f 211/3/5 210/3/5 209/3/5
f 212/3/5 202/3/5 210/3/5
f 212/3/5 210/3/5 211/3/5
f 215/2/5 214/2/5 213/2/5
f 216/2/5 214/2/5 215/2/5
f 221/2/5 218/2/5 217/2/5
f 222/2/5 218/2/5 221/2/5
f 223/2/5 220/2/5 219/2/5
f 224/2/5 220/2/5 223/2/5
f 227/2/5 226/2/5 225/2/5
f 228/2/5 226/2/5 227/2/5
f 231/5/5 230/5/5 229/5/5
f 232/5/5 230/5/5 231/5/5
f 233/5/5 231/5/5 229/5/5
f 234/5/5 230/5/5 232/5/5
f 235/5/5 233/5/5 229/5/5
f 235/5/5 234/5/5 233/5/5
f 236/5/5 230/5/5 234/5/5
f 236/5/5 234/5/5 235/5/5
f 237/3/6 238/3/6 239/3/6
f 239/3/6 238/3/6 240/3/6
f 245/4/6 246/4/6 247/4/6
f 247/4/6 246/4/6 248/4/6
f 241/3/6 242/3/6 249/3/6
f 249/3/6 242/3/6 250/3/6
f 243/3/6 244/3/6 251/3/6
f 251/3/6 244/3/6 252/3/6
f 253/3/6 254/3/6 255/3/6
f 255/3/6 254/3/6 256/3/6
f 257/3/6 258/3/6 259/3/6
f 259/3/6 258/3/6 260/3/6
f 257/3/6 259/3/6 261/3/6
f 260/3/6 258/3/6 262/3/6
f 257/3/6 261/3/6 263/3/6
f 261/3/6 262/3/6 263/3/6
f 262/3/6 258/3/6 264/3/6
f 263/3/6 262/3/6 264/3/6
f 265/2/6 266/2/6 267/2/6
f 267/2/6 266/2/6 268/2/6
f 269/2/6 270/2/6 271/2/6
f 271/2/6 270/2/6 272/2/6
f 269/2/6 271/2/6 273/2/6
f 272/2/6 270/2/6 274/2/6
f 269/2/6 273/2/6 275/2/6
f 273/2/6 274/2/6 275/2/6
f 274/2/6 270/2/6 276/2/6
f 275/2/6 274/2/6 276/2/6
f 265/2/6 267/2/6 277/2/6
f 268/2/6 266/2/6 278/2/6
f 265/2/6 277/2/6 279/2/6
f 277/2/6 278/2/6 279/2/6
f 278/2/6 266/2/6 280/2/6
f 279/2/6 278/2/6 280/2/6
f 281/1/6 282/1/6 283/1/6
f 283/1/6 282/1/6 284/1/6
f 281/1/6 283/1/6 285/1/6
f 284/1/6 282/1/6 286/1/6
f 281/1/6 285/1/6 287/1/6
f 285/1/6 286/1/6 287/1/6
f 286/1/6 282/1/6 288/1/6
f 287/1/6 286/1/6 288/1/6
f 289/5/6 290/5/6 291/5/6
f 291/5/6 290/5/6 292/5/6
f 293/5/6 294/5/6 295/5/6
f 295/5/6 294/5/6 296/5/6
f 297/5/6 298/5/6 301/5/6
f 301/5/6 298/5/6 302/5/6
f 299/5/6 300/5/6 303/5/6
f 303/5/6 300/5/6 304/5/6
